<svg width="24" height="20" viewBox="0 0 24 20" fill="none" xmlns="http://www.w3.org/2000/svg">
<path fill-rule="evenodd" clip-rule="evenodd" d="M24 2.55701C23.1014 2.95527 22.1481 3.21651 21.172 3.33201C22.2006 2.71718 22.9702 1.74888 23.337 0.608005C22.3704 1.18159 21.3128 1.58574 20.21 1.80301C19.7494 1.3114 19.1928 0.919695 18.5745 0.652199C17.9563 0.384704 17.2896 0.247126 16.616 0.248005C13.437 0.248005 11.101 3.21401 11.819 6.29301C9.86138 6.19501 7.94625 5.6864 6.19796 4.8002C4.44967 3.91399 2.9073 2.67001 1.671 1.14901C1.04148 2.23305 0.848566 3.51619 1.13149 4.73741C1.41441 5.95864 2.15192 7.02622 3.194 7.72301C2.41251 7.69834 1.64826 7.48713 0.965 7.10701C0.911 9.38801 2.546 11.522 4.914 11.997C4.18873 12.194 3.42806 12.2227 2.69 12.081C3.00451 13.0594 3.61703 13.915 4.44184 14.528C5.26665 15.1411 6.26249 15.4809 7.29 15.5C5.2262 17.1189 2.6043 17.8526 0 17.54C2.25151 18.9866 4.87183 19.7545 7.548 19.752C16.69 19.752 21.855 12.031 21.543 5.10601C22.5067 4.40883 23.3387 3.54571 24 2.55701Z" fill="#FA5959"/>
</svg>
